<svg width="80" height="80" viewBox="0 0 80 80" fill="none" xmlns="http://www.w3.org/2000/svg">
<g clip-path="url(#clip0_8125_272)">
<path d="M0 40V80H40H80V40V0H40H0V40Z" fill="#97EDAA"/>
<path d="M17.6909 40.2654L17.6655 43.5416H22.8718H28.0782V58.3353L28.0782 73.1289H31.7607H35.4433V58.3353V43.5416H40.6496H45.856V40.3289C45.856 38.5511 45.8179 37.0654 45.7671 37.0273C45.729 36.9765 39.3925 36.9511 31.7099 36.9638L17.729 37.0019L17.6909 40.2654Z" fill="#101010"/>
<path d="M64.552 36.9088C66.5837 37.4168 68.1329 38.3184 69.5551 39.7914C70.2916 40.5787 71.3837 42.0136 71.4726 42.3565C71.498 42.458 68.0186 44.7946 65.9107 46.1025C65.8345 46.1533 65.5297 45.8231 65.1869 45.3152C64.1583 43.8168 63.0789 43.1692 61.4281 43.0549C59.0028 42.8898 57.4408 44.1596 57.4535 46.2803C57.4535 46.9025 57.5424 47.2707 57.7964 47.7787C58.3297 48.8834 59.3202 49.5438 62.4313 50.8898C68.1583 53.3533 70.6091 54.9787 72.1329 57.2898C73.8345 59.8676 74.2154 63.9819 73.0599 67.0422C71.7901 70.3692 68.6408 72.6295 64.2091 73.3787C62.8377 73.6199 59.5869 73.5819 58.1139 73.3152C54.9012 72.7438 51.8535 71.1565 49.9742 69.0739C49.2377 68.2612 47.8028 66.1406 47.8916 65.9882C47.9297 65.9374 48.2599 65.7342 48.6281 65.5184C48.9837 65.3152 50.3297 64.5406 51.5996 63.8041L53.898 62.4707L54.3805 63.1818C55.0535 64.2104 56.5266 65.6199 57.4155 66.0898C59.9678 67.4358 63.4726 67.2453 65.1996 65.6961C65.9361 65.0231 66.2408 64.3247 66.2408 63.2961C66.2408 62.3692 66.1266 61.9628 65.644 61.2644C65.0218 60.3755 63.752 59.6263 60.1456 58.0644C56.0186 56.2866 54.2408 55.1819 52.6155 53.4295C51.6758 52.4136 50.7869 50.7882 50.4186 49.4295C50.1139 48.2993 50.0377 45.4676 50.2789 44.3247C51.1297 40.3374 54.1393 37.5565 58.4821 36.7311C59.8916 36.4644 63.1678 36.566 64.552 36.9088Z" fill="#101010"/>
</g>
<defs>
<clipPath id="clip0_8125_272">
<rect width="80" height="80" fill="white"/>
</clipPath>
</defs>
</svg>
