<svg width="80" height="80" viewBox="0 0 80 80" fill="none" xmlns="http://www.w3.org/2000/svg">
<path d="M40 10H30C24.4772 10 20 14.4772 20 20C20 25.5228 24.4772 30 30 30M40 10V30M40 10H50C55.523 10 60 14.4772 60 20C60 25.5228 55.523 30 50 30M30 30H40M30 30C24.4772 30 20 34.477 20 40C20 45.523 24.4772 50 30 50M40 30H50M40 30V50M50 30C55.523 30 60 34.477 60 40C60 45.523 55.523 50 50 50C44.477 50 40 45.523 40 40C40 34.477 44.477 30 50 30ZM40 50H30M40 50V60C40 65.523 35.523 70 30 70C24.4772 70 20 65.523 20 60C20 54.477 24.4772 50 30 50" stroke="#97EDAA" stroke-width="6.66667" stroke-linecap="round" stroke-linejoin="round"/>
</svg>
